<svg width="24" height="25" viewBox="0 0 24 25" fill="none" xmlns="http://www.w3.org/2000/svg">
<path d="M11 20.2194V4.7038C11 3.2308 10.36 2.6416 8.77 2.6416H4.73C3.14 2.6416 2.5 3.2308 2.5 4.7038V20.2194C2.5 21.6924 3.14 22.2816 4.73 22.2816H8.77C10.36 22.2816 11 21.6924 11 20.2194Z" fill="white"/>
<path d="M21.5 11.3814V4.7038C21.5 3.2308 20.86 2.6416 19.27 2.6416H15.23C13.64 2.6416 13 3.2308 13 4.7038V11.3814C13 12.8544 13.64 13.4436 15.23 13.4436H19.27C20.86 13.4436 21.5 12.8544 21.5 11.3814Z" fill="white"/>
<path d="M21.5 20.2195V17.4699C21.5 15.9969 20.86 15.4077 19.27 15.4077H15.23C13.64 15.4077 13 15.9969 13 17.4699V20.2195C13 21.6925 13.64 22.2817 15.23 22.2817H19.27C20.86 22.2817 21.5 21.6925 21.5 20.2195Z" fill="white"/>
</svg>
